{
  "accessors": [
    {
      "bufferView": 3,
      "componentType": 5126,
      "count": 1162,
      "max": [
        4.791749000549316,
        1.6638497114181519,
        4.791749000549316
      ],
      "min": [
        -4.791750431060791,
        -1.6638494729995728,
        -4.791749954223633
      ],
      "type": "VEC3"
    },
    {
      "bufferView": 3,
      "byteOffset": 13944,
      "componentType": 5126,
      "count": 1162,
      "max": [
        1.0,
        1.0,
        1.0
      ],
      "min": [
        -1.0,
        -1.0,
        -1.0
      ],
      "type": "VEC3"
    },
    {
      "bufferView": 4,
      "componentType": 5126,
      "count": 1162,
      "max": [
        1.0,
        1.0,
        1.0,
        1.0
      ],
      "min": [
        -0.9997086524963379,
        -1.0,
        -1.0,
        1.0
      ],
      "type": "VEC4"
    },
    {
      "bufferView": 2,
      "componentType": 5126,
      "count": 1162,
      "max": [
        0.9903678894042969,
        0.9900071620941162
      ],
      "min": [
        0.009632180444896221,
        0.009992839768528938
      ],
      "type": "VEC2"
    },
    {
      "bufferView": 1,
      "componentType": 5125,
      "count": 3894,
      "type": "SCALAR"
    },
    {
      "bufferView": 5,
      "componentType": 5126,
      "count": 12,
      "max": [
        100.0,
        1.0,
        0.0,
        0.0,
        1.0000001192092896,
        100.00000762939453,
        1.0000001192092896,
        0.0,
        3.2584134146418364e-07,
        0.9999999403953552,
        99.99999237060547,
        0.0,
        1.0071526765823364,
        0.8020501136779785,
        1.0071526765823364,
        1.0
      ],
      "min": [
        -1.0,
        -1.0,
        -3.600120544433594e-05,
        0.0,
        -1.0000001192092896,
        -1.0000001192092896,
        -1.0000001192092896,
        0.0,
        -3.2584134146418364e-07,
        -0.9999999403953552,
        -1.0,
        0.0,
        -1.0071526765823364,
        -0.8020498752593994,
        -1.0071526765823364,
        1.0
      ],
      "type": "MAT4"
    },
    {
      "bufferView": 0,
      "componentType": 5123,
      "count": 1162,
      "type": "VEC4"
    },
    {
      "bufferView": 4,
      "byteOffset": 18592,
      "componentType": 5126,
      "count": 1162,
      "max": [
        1.0,
        0.07247771322727203,
        0.0,
        0.0
      ],
      "min": [
        0.9275223016738892,
        0.0,
        0.0,
        0.0
      ],
      "type": "VEC4"
    },
    {
      "bufferView": 6,
      "componentType": 5126,
      "count": 1,
      "max": [
        0.0
      ],
      "min": [
        0.0
      ],
      "type": "SCALAR"
    },
    {
      "bufferView": 8,
      "componentType": 5126,
      "count": 1,
      "max": [
        -1.5597419178448035e-07,
        0.7071068286895752,
        0.7071067094802856,
        -3.233973089322717e-08
      ],
      "min": [
        -1.5597419178448035e-07,
        0.7071068286895752,
        0.7071067094802856,
        -3.233973089322717e-08
      ],
      "type": "VEC4"
    },
    {
      "bufferView": 6,
      "byteOffset": 4,
      "componentType": 5126,
      "count": 51,
      "max": [
        1.6666666269302368
      ],
      "min": [
        0.0
      ],
      "type": "SCALAR"
    },
    {
      "bufferView": 7,
      "componentType": 5126,
      "count": 51,
      "max": [
        9.853585097386111e-15,
        0.205102801322937,
        -5.360092252860993e-16
      ],
      "min": [
        9.853578321122533e-15,
        0.205102801322937,
        -7.641443359150679e-15
      ],
      "type": "VEC3"
    },
    {
      "bufferView": 6,
      "byteOffset": 208,
      "componentType": 5126,
      "count": 51,
      "max": [
        1.6666666269302368
      ],
      "min": [
        0.0
      ],
      "type": "SCALAR"
    },
    {
      "bufferView": 8,
      "byteOffset": 16,
      "componentType": 5126,
      "count": 51,
      "max": [
        0.7070948481559753,
        0.7071187496185303,
        2.1049014975460523e-08,
        2.0935904387897608e-07
      ],
      "min": [
        0.7070948481559753,
        0.7071187496185303,
        2.1049014975460523e-08,
        2.0935904387897608e-07
      ],
      "type": "VEC4"
    },
    {
      "bufferView": 6,
      "byteOffset": 412,
      "componentType": 5126,
      "count": 51,
      "max": [
        1.6666666269302368
      ],
      "min": [
        0.0
      ],
      "type": "SCALAR"
    },
    {
      "bufferView": 7,
      "byteOffset": 612,
      "componentType": 5126,
      "count": 51,
      "max": [
        9.853585097386111e-15,
        0.205102801322937,
        -5.360092252860993e-16
      ],
      "min": [
        9.853578321122533e-15,
        0.205102801322937,
        -7.641443359150679e-15
      ],
      "type": "VEC3"
    },
    {
      "bufferView": 6,
      "byteOffset": 616,
      "componentType": 5126,
      "count": 51,
      "max": [
        1.6666666269302368
      ],
      "min": [
        0.0
      ],
      "type": "SCALAR"
    },
    {
      "bufferView": 8,
      "byteOffset": 832,
      "componentType": 5126,
      "count": 51,
      "max": [
        -0.7070949077606201,
        -9.416128494326229e-14,
        -2.3040092855808325e-07,
        0.7071186304092407
      ],
      "min": [
        -0.7070949077606201,
        -9.429867368730693e-14,
        -2.3040092855808325e-07,
        0.7071186304092407
      ],
      "type": "VEC4"
    },
    {
      "bufferView": 6,
      "byteOffset": 820,
      "componentType": 5126,
      "count": 51,
      "max": [
        1.6666666269302368
      ],
      "min": [
        0.0
      ],
      "type": "SCALAR"
    },
    {
      "bufferView": 7,
      "byteOffset": 1224,
      "componentType": 5126,
      "count": 51,
      "max": [
        9.853585097386111e-15,
        0.205102801322937,
        -5.360092252860993e-16
      ],
      "min": [
        9.853578321122533e-15,
        0.205102801322937,
        -7.641443359150679e-15
      ],
      "type": "VEC3"
    },
    {
      "bufferView": 6,
      "byteOffset": 1024,
      "componentType": 5126,
      "count": 51,
      "max": [
        1.6666666269302368
      ],
      "min": [
        0.0
      ],
      "type": "SCALAR"
    },
    {
      "bufferView": 8,
      "byteOffset": 1648,
      "componentType": 5126,
      "count": 51,
      "max": [
        0.7070947885513306,
        1.2551541658467613e-05,
        1.2781519217242021e-05,
        0.707118809223175
      ],
      "min": [
        0.7070947885513306,
        1.2551541658467613e-05,
        1.2781519217242021e-05,
        0.707118809223175
      ],
      "type": "VEC4"
    },
    {
      "bufferView": 6,
      "byteOffset": 1228,
      "componentType": 5126,
      "count": 51,
      "max": [
        1.6666666269302368
      ],
      "min": [
        0.0
      ],
      "type": "SCALAR"
    },
    {
      "bufferView": 7,
      "byteOffset": 1836,
      "componentType": 5126,
      "count": 51,
      "max": [
        9.853585097386111e-15,
        0.205102801322937,
        -5.360092252860993e-16
      ],
      "min": [
        9.853578321122533e-15,
        0.205102801322937,
        -7.641443359150679e-15
      ],
      "type": "VEC3"
    },
    {
      "bufferView": 6,
      "byteOffset": 1432,
      "componentType": 5126,
      "count": 51,
      "max": [
        1.6666666269302368
      ],
      "min": [
        0.0
      ],
      "type": "SCALAR"
    },
    {
      "bufferView": 8,
      "byteOffset": 2464,
      "componentType": 5126,
      "count": 51,
      "max": [
        -0.707094669342041,
        0.7071188688278198,
        -2.1049045173526792e-08,
        2.0935902966812137e-07
      ],
      "min": [
        -0.707094669342041,
        0.7071188688278198,
        -2.1049045173526792e-08,
        2.0935902966812137e-07
      ],
      "type": "VEC4"
    },
    {
      "bufferView": 6,
      "byteOffset": 1636,
      "componentType": 5126,
      "count": 81,
      "max": [
        1.6666666269302368
      ],
      "min": [
        0.0
      ],
      "type": "SCALAR"
    },
    {
      "bufferView": 8,
      "byteOffset": 3280,
      "componentType": 5126,
      "count": 81,
      "max": [
        0.5000000596046448,
        0.7071068286895752,
        0.5420057773590088,
        0.7071067094802856
      ],
      "min": [
        -0.7071068286895752,
        -0.5420057773590088,
        -0.7071067094802856,
        -0.49999991059303284
      ],
      "type": "VEC4"
    }
  ],
  "animations": [
    {
      "channels": [
        {
          "sampler": 0,
          "target": {
            "node": 7,
            "path": "rotation"
          }
        },
        {
          "sampler": 1,
          "target": {
            "node": 10,
            "path": "translation"
          }
        },
        {
          "sampler": 2,
          "target": {
            "node": 10,
            "path": "rotation"
          }
        },
        {
          "sampler": 3,
          "target": {
            "node": 12,
            "path": "translation"
          }
        },
        {
          "sampler": 4,
          "target": {
            "node": 12,
            "path": "rotation"
          }
        },
        {
          "sampler": 5,
          "target": {
            "node": 14,
            "path": "translation"
          }
        },
        {
          "sampler": 6,
          "target": {
            "node": 14,
            "path": "rotation"
          }
        },
        {
          "sampler": 7,
          "target": {
            "node": 16,
            "path": "translation"
          }
        },
        {
          "sampler": 8,
          "target": {
            "node": 16,
            "path": "rotation"
          }
        },
        {
          "sampler": 9,
          "target": {
            "node": 9,
            "path": "rotation"
          }
        }
      ],
      "name": "Armature.001|Spin",
      "samplers": [
        {
          "input": 8,
          "interpolation": "LINEAR",
          "output": 9
        },
        {
          "input": 10,
          "interpolation": "LINEAR",
          "output": 11
        },
        {
          "input": 12,
          "interpolation": "LINEAR",
          "output": 13
        },
        {
          "input": 14,
          "interpolation": "LINEAR",
          "output": 15
        },
        {
          "input": 16,
          "interpolation": "LINEAR",
          "output": 17
        },
        {
          "input": 18,
          "interpolation": "LINEAR",
          "output": 19
        },
        {
          "input": 20,
          "interpolation": "LINEAR",
          "output": 21
        },
        {
          "input": 22,
          "interpolation": "LINEAR",
          "output": 23
        },
        {
          "input": 24,
          "interpolation": "LINEAR",
          "output": 25
        },
        {
          "input": 26,
          "interpolation": "LINEAR",
          "output": 27
        }
      ]
    }
  ],
  "asset": {
    "extras": {
      "author": "Blender3D (https://sketchfab.com/Blender3D)",
      "license": "CC-BY-4.0 (http://creativecommons.org/licenses/by/4.0/)",
      "source": "https://sketchfab.com/3d-models/simple-ceiling-fan-226e34b1a7b3470cb0ba095af68af90c",
      "title": "Simple Ceiling Fan"
    },
    "generator": "Sketchfab-12.66.0",
    "version": "2.0"
  },
  "bufferViews": [
    {
      "buffer": 0,
      "byteLength": 9296,
      "byteStride": 8,
      "name": "shortBufferViews",
      "target": 34962
    },
    {
      "buffer": 0,
      "byteLength": 15576,
      "byteOffset": 9296,
      "name": "floatBufferViews",
      "target": 34963
    },
    {
      "buffer": 0,
      "byteLength": 9296,
      "byteOffset": 24872,
      "byteStride": 8,
      "name": "floatBufferViews",
      "target": 34962
    },
    {
      "buffer": 0,
      "byteLength": 27888,
      "byteOffset": 34168,
      "byteStride": 12,
      "name": "floatBufferViews",
      "target": 34962
    },
    {
      "buffer": 0,
      "byteLength": 37184,
      "byteOffset": 62056,
      "byteStride": 16,
      "name": "floatBufferViews",
      "target": 34962
    },
    {
      "buffer": 0,
      "byteLength": 768,
      "byteOffset": 99240,
      "name": "floatBufferViews"
    },
    {
      "buffer": 0,
      "byteLength": 1960,
      "byteOffset": 100008,
      "name": "floatBufferViews"
    },
    {
      "buffer": 0,
      "byteLength": 2448,
      "byteOffset": 101968,
      "byteStride": 12,
      "name": "floatBufferViews"
    },
    {
      "buffer": 0,
      "byteLength": 4576,
      "byteOffset": 104416,
      "byteStride": 16,
      "name": "floatBufferViews"
    }
  ],
  "buffers": [
    {
      "byteLength": 108992,
      "uri": "scene.bin"
    }
  ],
  "images": [
    {
      "uri": "textures/Scene_-_Root_baseColor.png"
    },
    {
      "uri": "textures/Scene_-_Root_metallicRoughness.png"
    },
    {
      "uri": "textures/Scene_-_Root_emissive.png"
    },
    {
      "uri": "textures/Scene_-_Root_normal.png"
    }
  ],
  "materials": [
    {
      "doubleSided": true,
      "emissiveFactor": [
        1.0,
        1.0,
        1.0
      ],
      "emissiveTexture": {
        "index": 2
      },
      "name": "Scene_-_Root",
      "normalTexture": {
        "index": 3,
        "scale": 0.05696970621744792
      },
      "occlusionTexture": {
        "index": 1
      },
      "pbrMetallicRoughness": {
        "baseColorTexture": {
          "index": 0
        },
        "metallicRoughnessTexture": {
          "index": 1
        }
      }
    }
  ],
  "meshes": [
    {
      "name": "Fan__0",
      "primitives": [
        {
          "attributes": {
            "JOINTS_0": 6,
            "NORMAL": 1,
            "POSITION": 0,
            "TANGENT": 2,
            "TEXCOORD_0": 3,
            "WEIGHTS_0": 7
          },
          "indices": 4,
          "material": 0,
          "mode": 4
        }
      ]
    }
  ],
  "nodes": [
    {
      "children": [
        1
      ],
      "matrix": [
        1.0,
        0.0,
        0.0,
        0.0,
        0.0,
        2.220446049250313e-16,
        -1.0,
        0.0,
        0.0,
        1.0,
        2.220446049250313e-16,
        0.0,
        0.0,
        0.0,
        0.0,
        1.0
      ],
      "name": "Sketchfab_model"
    },
    {
      "children": [
        2
      ],
      "matrix": [
        1.0,
        0.0,
        0.0,
        0.0,
        0.0,
        0.0,
        1.0,
        0.0,
        0.0,
        -1.0,
        0.0,
        0.0,
        0.0,
        0.0,
        0.0,
        1.0
      ],
      "name": "Fan.fbx"
    },
    {
      "children": [
        3
      ],
      "name": "Object_2"
    },
    {
      "children": [
        4,
        20
      ],
      "name": "RootNode"
    },
    {
      "children": [
        5
      ],
      "name": "Armature.001",
      "rotation": [
        -0.7071068286895752,
        0.0,
        0.0,
        0.7071067094802856
      ],
      "scale": [
        100.0,
        100.0,
        100.0
      ]
    },
    {
      "children": [
        6,
        19,
        18
      ],
      "name": "Object_5"
    },
    {
      "children": [
        7,
        9
      ],
      "name": "_rootJoint"
    },
    {
      "children": [
        8
      ],
      "name": "Bone.004_00",
      "rotation": [
        -1.9949600016389013e-07,
        0.7071068286895752,
        0.7071067094802856,
        -7.586153571992327e-08
      ],
      "scale": [
        1.0,
        0.9999997019767761,
        0.9999999403953552
      ],
      "translation": [
        1.4023486016867537e-07,
        -1.1991319581738935e-07,
        -0.8020499348640442
      ]
    },
    {
      "name": "Bone.004_end_06",
      "rotation": [
        -0.0,
        -5.293955920339377e-23,
        -3.421649466516309e-24,
        1.0
      ],
      "translation": [
        4.194927528959947e-23,
        2.3462979793548584,
        -1.0587911840678754e-22
      ]
    },
    {
      "children": [
        10,
        12,
        14,
        16
      ],
      "name": "Bone.005_01",
      "rotation": [
        1.99496057007309e-07,
        0.7071068286895752,
        -0.7071067094802856,
        -7.586148598193176e-08
      ],
      "translation": [
        1.4023487437953008e-07,
        -1.1991316739567992e-07,
        -0.8020498752593994
      ]
    },
    {
      "children": [
        11
      ],
      "name": "Bone.001_02",
      "rotation": [
        0.7070948481559753,
        0.7071187496185303,
        6.182021650147362e-08,
        1.6858646745276928e-07
      ],
      "translation": [
        9.853578321122533e-15,
        0.205102801322937,
        -5.360092252860993e-16
      ]
    },
    {
      "name": "Bone.001_end_07",
      "rotation": [
        1.3234889800848443e-23,
        -4.203895392974451e-45,
        -3.011929248731937e-22,
        1.0
      ],
      "translation": [
        -2.220446049250313e-16,
        4.564301490783691,
        0.0
      ]
    },
    {
      "children": [
        13
      ],
      "name": "Bone.002_03",
      "rotation": [
        -0.7070949077606201,
        -8.9390138086759e-14,
        -2.3040092855808325e-07,
        0.7071186304092407
      ],
      "translation": [
        9.853578321122533e-15,
        0.205102801322937,
        -5.360092252860993e-16
      ]
    },
    {
      "name": "Bone.002_end_08",
      "rotation": [
        -3.3881317890172014e-21,
        1.6167584345647043e-23,
        6.617444900424222e-24,
        1.0
      ],
      "translation": [
        1.0587911840678754e-22,
        4.5855326652526855,
        2.220446049250313e-16
      ]
    },
    {
      "children": [
        15
      ],
      "name": "Bone.003_04",
      "rotation": [
        0.7070947885513306,
        1.2551541658467613e-05,
        1.2781519217242021e-05,
        0.7071187496185303
      ],
      "translation": [
        9.853578321122533e-15,
        0.205102801322937,
        -5.360092252860993e-16
      ]
    },
    {
      "name": "Bone.003_end_09",
      "rotation": [
        -3.3881317890172014e-21,
        2.259702942975193e-21,
        7.6566948090708e-42,
        1.0
      ],
      "translation": [
        0.0,
        4.571422576904297,
        -2.220446049250313e-16
      ]
    },
    {
      "children": [
        17
      ],
      "name": "Bone_05",
      "rotation": [
        -0.7070947289466858,
        0.7071188688278198,
        -6.182022360690098e-08,
        1.6858643903105985e-07
      ],
      "translation": [
        9.853578321122533e-15,
        0.205102801322937,
        -5.360092252860993e-16
      ]
    },
    {
      "name": "Bone_end_010",
      "rotation": [
        -5.184804318001823e-44,
        -1.3234889800848443e-23,
        -3.8917434181877796e-21,
        1.0
      ],
      "translation": [
        0.0,
        4.556136608123779,
        -5.293955920339377e-23
      ]
    },
    {
      "matrix": [
        100.00000000001367,
        9.439437569606108e-13,
        -1.3498137476459712e-12,
        0.0,
        -1.3498138055736707e-12,
        2.026729225791503e-12,
        -100.00000429154504,
        0.0,
        -9.43943693945379e-13,
        99.99999332427647,
        2.0267290035146876e-12,
        0.0,
        -1.3526745573796094e-12,
        3.1890522222965956e-07,
        6.625601624418373e-13,
        1.0
      ],
      "name": "Object_18"
    },
    {
      "mesh": 0,
      "name": "Object_19",
      "skin": 0
    },
    {
      "name": "Fan",
      "rotation": [
        -0.7071068286895752,
        0.0,
        0.0,
        0.7071067094802856
      ],
      "scale": [
        100.0,
        100.0,
        100.0
      ]
    }
  ],
  "samplers": [
    {
      "magFilter": 9729,
      "minFilter": 9987,
      "wrapS": 10497,
      "wrapT": 10497
    }
  ],
  "scene": 0,
  "scenes": [
    {
      "name": "Sketchfab_Scene",
      "nodes": [
        0
      ]
    }
  ],
  "skins": [
    {
      "inverseBindMatrices": 5,
      "joints": [
        6,
        7,
        8,
        9,
        10,
        11,
        12,
        13,
        14,
        15,
        16,
        17
      ],
      "skeleton": 6
    }
  ],
  "textures": [
    {
      "sampler": 0,
      "source": 0
    },
    {
      "sampler": 0,
      "source": 1
    },
    {
      "sampler": 0,
      "source": 2
    },
    {
      "sampler": 0,
      "source": 3
    }
  ]
}
