{
  "accessors": [
    {
      "bufferView": 2,
      "componentType": 5126,
      "count": 1799,
      "max": [
        1.1399133205413818,
        1.138227105140686,
        1.1439424753189087
      ],
      "min": [
        -1.1399133205413818,
        -1.138227105140686,
        -1.1364675760269165
      ],
      "type": "VEC3"
    },
    {
      "bufferView": 2,
      "byteOffset": 21588,
      "componentType": 5126,
      "count": 1799,
      "max": [
        0.9997957944869995,
        0.9998053312301636,
        1.0
      ],
      "min": [
        -0.9997957944869995,
        -0.9998053312301636,
        -1.0
      ],
      "type": "VEC3"
    },
    {
      "bufferView": 3,
      "componentType": 5126,
      "count": 1799,
      "max": [
        0.9981853365898132,
        0.9961021542549133,
        0.6835905909538269,
        1.0
      ],
      "min": [
        -0.9871041774749756,
        -0.9941332936286926,
        -0.9974533319473267,
        1.0
      ],
      "type": "VEC4"
    },
    {
      "bufferView": 1,
      "componentType": 5126,
      "count": 1799,
      "max": [
        1.0,
        1.0
      ],
      "min": [
        0.0,
        0.0
      ],
      "type": "VEC2"
    },
    {
      "bufferView": 1,
      "byteOffset": 14392,
      "componentType": 5126,
      "count": 1799,
      "max": [
        0.8750002384185791,
        1.000000238418579
      ],
      "min": [
        0.125,
        0.0
      ],
      "type": "VEC2"
    },
    {
      "bufferView": 0,
      "componentType": 5125,
      "count": 7872,
      "type": "SCALAR"
    },
    {
      "bufferView": 2,
      "byteOffset": 43176,
      "componentType": 5126,
      "count": 374,
      "max": [
        0.8447215557098389,
        0.6834716200828552,
        1.0331991910934448
      ],
      "min": [
        -1.0381404161453247,
        -0.6834716796875,
        -1.036940097808838
      ],
      "type": "VEC3"
    },
    {
      "bufferView": 2,
      "byteOffset": 47664,
      "componentType": 5126,
      "count": 374,
      "max": [
        0.7334071397781372,
        0.5855113863945007,
        0.9064345359802246
      ],
      "min": [
        -0.9142223000526428,
        -0.5855113863945007,
        -0.916691780090332
      ],
      "type": "VEC3"
    },
    {
      "bufferView": 3,
      "byteOffset": 28784,
      "componentType": 5126,
      "count": 374,
      "max": [
        0.9980790019035339,
        0.9239715337753296,
        0.6812734007835388,
        1.0
      ],
      "min": [
        -0.9050370454788208,
        -0.9936761260032654,
        -0.7589601278305054,
        1.0
      ],
      "type": "VEC4"
    },
    {
      "bufferView": 1,
      "byteOffset": 28784,
      "componentType": 5126,
      "count": 374,
      "max": [
        0.986504077911377,
        0.9828534722328186
      ],
      "min": [
        0.018557030707597733,
        0.007500389125198126
      ],
      "type": "VEC2"
    },
    {
      "bufferView": 1,
      "byteOffset": 31776,
      "componentType": 5126,
      "count": 374,
      "max": [
        0.5937501192092896,
        1.000000238418579
      ],
      "min": [
        0.4062500298023224,
        0.0
      ],
      "type": "VEC2"
    },
    {
      "bufferView": 0,
      "byteOffset": 31488,
      "componentType": 5125,
      "count": 1344,
      "type": "SCALAR"
    }
  ],
  "asset": {
    "extras": {
      "author": "Kalule_Enoch (https://sketchfab.com/Kalule_Enoch)",
      "license": "CC-BY-NC-4.0 (http://creativecommons.org/licenses/by-nc/4.0/)",
      "source": "https://sketchfab.com/3d-models/tennisball-d606c9efe6ac45df80366037d4c303f1",
      "title": "tennisBall"
    },
    "generator": "Sketchfab-12.68.0",
    "version": "2.0"
  },
  "bufferViews": [
    {
      "buffer": 0,
      "byteLength": 36864,
      "name": "floatBufferViews",
      "target": 34963
    },
    {
      "buffer": 0,
      "byteLength": 34768,
      "byteOffset": 36864,
      "byteStride": 8,
      "name": "floatBufferViews",
      "target": 34962
    },
    {
      "buffer": 0,
      "byteLength": 52152,
      "byteOffset": 71632,
      "byteStride": 12,
      "name": "floatBufferViews",
      "target": 34962
    },
    {
      "buffer": 0,
      "byteLength": 34768,
      "byteOffset": 123784,
      "byteStride": 16,
      "name": "floatBufferViews",
      "target": 34962
    }
  ],
  "buffers": [
    {
      "byteLength": 158552,
      "uri": "scene.bin"
    }
  ],
  "images": [
    {
      "uri": "textures/hairs_normal.png"
    }
  ],
  "materials": [
    {
      "doubleSided": true,
      "name": "hairs",
      "normalTexture": {
        "index": 0
      },
      "pbrMetallicRoughness": {
        "baseColorFactor": [
          0.153239,
          0.8,
          0.0346234,
          1.0
        ],
        "metallicFactor": 0.0,
        "roughnessFactor": 0.5
      }
    },
    {
      "doubleSided": true,
      "name": "stripe",
      "normalTexture": {
        "index": 0
      },
      "pbrMetallicRoughness": {
        "baseColorFactor": [
          0.8,
          0.8,
          0.8,
          1.0
        ],
        "metallicFactor": 0.381818,
        "roughnessFactor": 0.813636
      }
    }
  ],
  "meshes": [
    {
      "name": "Object_0",
      "primitives": [
        {
          "attributes": {
            "NORMAL": 1,
            "POSITION": 0,
            "TANGENT": 2,
            "TEXCOORD_0": 3,
            "TEXCOORD_1": 4
          },
          "indices": 5,
          "material": 0,
          "mode": 4
        }
      ]
    },
    {
      "name": "Object_1",
      "primitives": [
        {
          "attributes": {
            "NORMAL": 7,
            "POSITION": 6,
            "TANGENT": 8,
            "TEXCOORD_0": 9,
            "TEXCOORD_1": 10
          },
          "indices": 11,
          "material": 1,
          "mode": 4
        }
      ]
    }
  ],
  "nodes": [
    {
      "children": [
        1
      ],
      "matrix": [
        1.0,
        0.0,
        0.0,
        0.0,
        0.0,
        2.220446049250313e-16,
        -1.0,
        0.0,
        0.0,
        1.0,
        2.220446049250313e-16,
        0.0,
        0.0,
        0.0,
        0.0,
        1.0
      ],
      "name": "Sketchfab_model"
    },
    {
      "children": [
        2
      ],
      "name": "root"
    },
    {
      "children": [
        3
      ],
      "matrix": [
        1.0,
        0.0,
        0.0,
        0.0,
        0.0,
        2.220446049250313e-16,
        1.0,
        0.0,
        0.0,
        -1.0,
        2.220446049250313e-16,
        0.0,
        0.0,
        0.0,
        0.0,
        1.0
      ],
      "name": "GLTF_SceneRootNode"
    },
    {
      "children": [
        4,
        5
      ],
      "name": "ball_2"
    },
    {
      "mesh": 0,
      "name": "Object_4"
    },
    {
      "mesh": 1,
      "name": "Object_5"
    }
  ],
  "samplers": [
    {
      "magFilter": 9729,
      "minFilter": 9987,
      "wrapS": 10497,
      "wrapT": 10497
    }
  ],
  "scene": 0,
  "scenes": [
    {
      "name": "Sketchfab_Scene",
      "nodes": [
        0
      ]
    }
  ],
  "textures": [
    {
      "sampler": 0,
      "source": 0
    }
  ]
}
