{
  "accessors": [
    {
      "bufferView": 2,
      "componentType": 5126,
      "count": 8425,
      "max": [
        0.6483500003814697,
        3.1308600902557373,
        1.4803199768066406
      ],
      "min": [
        -0.6383500099182129,
        -3.2133700847625732,
        0.16259999573230743
      ],
      "type": "VEC3"
    },
    {
      "bufferView": 2,
      "byteOffset": 101100,
      "componentType": 5126,
      "count": 8425,
      "max": [
        1.0,
        1.0,
        1.0
      ],
      "min": [
        -1.0,
        -1.0,
        -1.0
      ],
      "type": "VEC3"
    },
    {
      "bufferView": 1,
      "componentType": 5126,
      "count": 8425,
      "max": [
        0.9945300221443176,
        0.9940199851989746
      ],
      "min": [
        0.0015399999683722854,
        0.0010600000387057662
      ],
      "type": "VEC2"
    },
    {
      "bufferView": 0,
      "componentType": 5125,
      "count": 16332,
      "type": "SCALAR"
    },
    {
      "bufferView": 2,
      "byteOffset": 202200,
      "componentType": 5126,
      "count": 2128,
      "max": [
        0.7227799892425537,
        1.7549899816513062,
        3.262629985809326
      ],
      "min": [
        -0.7575899958610535,
        0.15830999612808228,
        -3.1869499683380127
      ],
      "type": "VEC3"
    },
    {
      "bufferView": 2,
      "byteOffset": 227736,
      "componentType": 5126,
      "count": 2128,
      "max": [
        1.0,
        1.0,
        1.0
      ],
      "min": [
        -1.0,
        -1.0,
        -1.0
      ],
      "type": "VEC3"
    },
    {
      "bufferView": 3,
      "componentType": 5126,
      "count": 2128,
      "max": [
        1.0,
        1.0,
        1.0,
        1.0
      ],
      "min": [
        -1.0,
        -1.0,
        -1.0,
        -1.0
      ],
      "type": "VEC4"
    },
    {
      "bufferView": 1,
      "byteOffset": 67400,
      "componentType": 5126,
      "count": 2128,
      "max": [
        0.9982699751853943,
        1.0539599657058716
      ],
      "min": [
        0.00018000000272877514,
        0.0029899999499320984
      ],
      "type": "VEC2"
    },
    {
      "bufferView": 0,
      "byteOffset": 65328,
      "componentType": 5125,
      "count": 5319,
      "type": "SCALAR"
    },
    {
      "bufferView": 2,
      "byteOffset": 253272,
      "componentType": 5126,
      "count": 110,
      "max": [
        0.0050200000405311584,
        1.0826799869537354,
        0.005789999850094318
      ],
      "min": [
        -0.03725000098347664,
        -0.0,
        -0.3189300000667572
      ],
      "type": "VEC3"
    },
    {
      "bufferView": 2,
      "byteOffset": 254592,
      "componentType": 5126,
      "count": 110,
      "max": [
        1.0,
        1.0,
        1.0
      ],
      "min": [
        -1.0,
        -1.0,
        -1.0
      ],
      "type": "VEC3"
    },
    {
      "bufferView": 3,
      "byteOffset": 34048,
      "componentType": 5126,
      "count": 110,
      "max": [
        1.0,
        0.20632663369178772,
        1.0,
        1.0
      ],
      "min": [
        -1.0,
        -0.9999210834503174,
        -1.0,
        -1.0
      ],
      "type": "VEC4"
    },
    {
      "bufferView": 1,
      "byteOffset": 84424,
      "componentType": 5126,
      "count": 110,
      "max": [
        0.33250999450683594,
        0.9640100002288818
      ],
      "min": [
        0.04149999842047691,
        0.2294899970293045
      ],
      "type": "VEC2"
    },
    {
      "bufferView": 0,
      "byteOffset": 86604,
      "componentType": 5125,
      "count": 288,
      "type": "SCALAR"
    },
    {
      "bufferView": 2,
      "byteOffset": 255912,
      "componentType": 5126,
      "count": 108,
      "max": [
        0.0050200000405311584,
        1.0826799869537354,
        0.3102000057697296
      ],
      "min": [
        -0.03725999966263771,
        -0.0,
        -0.005789999850094318
      ],
      "type": "VEC3"
    },
    {
      "bufferView": 2,
      "byteOffset": 257208,
      "componentType": 5126,
      "count": 108,
      "max": [
        1.0,
        1.0,
        1.0
      ],
      "min": [
        -1.0,
        -1.0,
        -1.0
      ],
      "type": "VEC3"
    },
    {
      "bufferView": 3,
      "byteOffset": 35808,
      "componentType": 5126,
      "count": 108,
      "max": [
        1.0,
        0.20632387697696686,
        1.0,
        1.0
      ],
      "min": [
        -1.0,
        -0.9999210834503174,
        -1.0,
        -1.0
      ],
      "type": "VEC4"
    },
    {
      "bufferView": 1,
      "byteOffset": 85304,
      "componentType": 5126,
      "count": 108,
      "max": [
        0.33263999223709106,
        0.962149977684021
      ],
      "min": [
        0.09081999957561493,
        0.2294899970293045
      ],
      "type": "VEC2"
    },
    {
      "bufferView": 0,
      "byteOffset": 87756,
      "componentType": 5125,
      "count": 288,
      "type": "SCALAR"
    },
    {
      "bufferView": 2,
      "byteOffset": 258504,
      "componentType": 5126,
      "count": 104,
      "max": [
        0.0050200000405311584,
        1.0826799869537354,
        0.4404500126838684
      ],
      "min": [
        -0.03725999966263771,
        -0.0,
        -0.005789999850094318
      ],
      "type": "VEC3"
    },
    {
      "bufferView": 2,
      "byteOffset": 259752,
      "componentType": 5126,
      "count": 104,
      "max": [
        1.0,
        1.0,
        1.0
      ],
      "min": [
        -1.0,
        -1.0,
        -1.0
      ],
      "type": "VEC3"
    },
    {
      "bufferView": 3,
      "byteOffset": 37536,
      "componentType": 5126,
      "count": 104,
      "max": [
        1.0,
        0.6512457132339478,
        1.0,
        1.0
      ],
      "min": [
        -1.0,
        -0.984230101108551,
        -1.0,
        -1.0
      ],
      "type": "VEC4"
    },
    {
      "bufferView": 1,
      "byteOffset": 86168,
      "componentType": 5126,
      "count": 104,
      "max": [
        0.59375,
        0.965719997882843
      ],
      "min": [
        0.33258000016212463,
        0.2294899970293045
      ],
      "type": "VEC2"
    },
    {
      "bufferView": 0,
      "byteOffset": 88908,
      "componentType": 5125,
      "count": 288,
      "type": "SCALAR"
    },
    {
      "bufferView": 2,
      "byteOffset": 261000,
      "componentType": 5126,
      "count": 854,
      "max": [
        3.4680800437927246,
        0.6163399815559387,
        0.2617399990558624
      ],
      "min": [
        -0.2617399990558624,
        -0.6163399815559387,
        -0.2617399990558624
      ],
      "type": "VEC3"
    },
    {
      "bufferView": 2,
      "byteOffset": 271248,
      "componentType": 5126,
      "count": 854,
      "max": [
        0.7318723797798157,
        1.0,
        0.7318723797798157
      ],
      "min": [
        -0.7318723797798157,
        -1.0,
        -0.7318723797798157
      ],
      "type": "VEC3"
    },
    {
      "bufferView": 3,
      "byteOffset": 39200,
      "componentType": 5126,
      "count": 854,
      "max": [
        0.9856083989143372,
        0.7151352763175964,
        0.9856082201004028,
        1.0
      ],
      "min": [
        -0.9856115579605103,
        -0.7151352763175964,
        -0.9971227645874023,
        -1.0
      ],
      "type": "VEC4"
    },
    {
      "bufferView": 1,
      "byteOffset": 87000,
      "componentType": 5126,
      "count": 854,
      "max": [
        0.7468000054359436,
        0.8024600148200989
      ],
      "min": [
        0.3344700038433075,
        0.722029983997345
      ],
      "type": "VEC2"
    },
    {
      "bufferView": 0,
      "byteOffset": 90060,
      "componentType": 5125,
      "count": 1872,
      "type": "SCALAR"
    },
    {
      "bufferView": 4,
      "componentType": 5126,
      "count": 32,
      "max": [
        2.083329916000366
      ],
      "min": [
        0.041669998317956924
      ],
      "type": "SCALAR"
    },
    {
      "bufferView": 5,
      "componentType": 5126,
      "count": 32,
      "max": [
        -1.014490008354187,
        1.1155699491500854,
        0.3363400101661682
      ],
      "min": [
        -1.014490008354187,
        0.38971999287605286,
        0.3363400101661682
      ],
      "type": "VEC3"
    },
    {
      "bufferView": 4,
      "byteOffset": 128,
      "componentType": 5126,
      "count": 32,
      "max": [
        2.083329916000366
      ],
      "min": [
        0.041669998317956924
      ],
      "type": "SCALAR"
    },
    {
      "bufferView": 6,
      "componentType": 5126,
      "count": 32,
      "max": [
        0.5,
        0.7071067690849304,
        0.7071067690849304,
        0.5
      ],
      "min": [
        -0.0,
        0.5,
        0.5,
        -0.0
      ],
      "type": "VEC4"
    },
    {
      "bufferView": 4,
      "byteOffset": 256,
      "componentType": 5126,
      "count": 32,
      "max": [
        2.083329916000366
      ],
      "min": [
        0.041669998317956924
      ],
      "type": "SCALAR"
    },
    {
      "bufferView": 5,
      "byteOffset": 384,
      "componentType": 5126,
      "count": 32,
      "max": [
        4.088319778442383,
        1.1155699491500854,
        0.3363400101661682
      ],
      "min": [
        4.088319778442383,
        0.6155700087547302,
        0.3363400101661682
      ],
      "type": "VEC3"
    },
    {
      "bufferView": 4,
      "byteOffset": 384,
      "componentType": 5126,
      "count": 32,
      "max": [
        2.083329916000366
      ],
      "min": [
        0.041669998317956924
      ],
      "type": "SCALAR"
    },
    {
      "bufferView": 6,
      "byteOffset": 512,
      "componentType": 5126,
      "count": 32,
      "max": [
        0.5,
        0.7071067690849304,
        0.7071067690849304,
        0.5
      ],
      "min": [
        0.0,
        0.5,
        0.5,
        0.0
      ],
      "type": "VEC4"
    },
    {
      "bufferView": 4,
      "byteOffset": 512,
      "componentType": 5126,
      "count": 32,
      "max": [
        2.083329916000366
      ],
      "min": [
        0.041669998317956924
      ],
      "type": "SCALAR"
    },
    {
      "bufferView": 5,
      "byteOffset": 768,
      "componentType": 5126,
      "count": 32,
      "max": [
        5.179230213165283,
        1.1155699491500854,
        0.3363400101661682
      ],
      "min": [
        5.179230213165283,
        0.6155700087547302,
        0.3363400101661682
      ],
      "type": "VEC3"
    },
    {
      "bufferView": 4,
      "byteOffset": 640,
      "componentType": 5126,
      "count": 32,
      "max": [
        2.083329916000366
      ],
      "min": [
        0.041669998317956924
      ],
      "type": "SCALAR"
    },
    {
      "bufferView": 6,
      "byteOffset": 1024,
      "componentType": 5126,
      "count": 32,
      "max": [
        0.7071067690849304,
        0.5,
        0.5,
        0.7071067690849304
      ],
      "min": [
        0.5,
        0.0,
        0.0,
        0.5
      ],
      "type": "VEC4"
    }
  ],
  "animations": [
    {
      "channels": [
        {
          "sampler": 0,
          "target": {
            "node": 12,
            "path": "translation"
          }
        },
        {
          "sampler": 1,
          "target": {
            "node": 12,
            "path": "rotation"
          }
        },
        {
          "sampler": 2,
          "target": {
            "node": 10,
            "path": "translation"
          }
        },
        {
          "sampler": 3,
          "target": {
            "node": 10,
            "path": "rotation"
          }
        },
        {
          "sampler": 4,
          "target": {
            "node": 8,
            "path": "translation"
          }
        },
        {
          "sampler": 5,
          "target": {
            "node": 8,
            "path": "rotation"
          }
        }
      ],
      "name": "Doors",
      "samplers": [
        {
          "input": 29,
          "interpolation": "LINEAR",
          "output": 30
        },
        {
          "input": 31,
          "interpolation": "LINEAR",
          "output": 32
        },
        {
          "input": 33,
          "interpolation": "LINEAR",
          "output": 34
        },
        {
          "input": 35,
          "interpolation": "LINEAR",
          "output": 36
        },
        {
          "input": 37,
          "interpolation": "LINEAR",
          "output": 38
        },
        {
          "input": 39,
          "interpolation": "LINEAR",
          "output": 40
        }
      ]
    }
  ],
  "asset": {
    "extras": {
      "author": "Jotrain (https://sketchfab.com/Jotrain)",
      "license": "CC-BY-NC-4.0 (http://creativecommons.org/licenses/by-nc/4.0/)",
      "source": "https://sketchfab.com/3d-models/brisbane-city-scania-l94ub-bus-8f41b49ba5344d3a8391a4c0d144d8e8",
      "title": "Brisbane City Scania L94UB Bus"
    },
    "generator": "Sketchfab-12.68.0",
    "version": "2.0"
  },
  "bufferViews": [
    {
      "buffer": 0,
      "byteLength": 97548,
      "name": "floatBufferViews",
      "target": 34963
    },
    {
      "buffer": 0,
      "byteLength": 93832,
      "byteOffset": 97548,
      "byteStride": 8,
      "name": "floatBufferViews",
      "target": 34962
    },
    {
      "buffer": 0,
      "byteLength": 281496,
      "byteOffset": 191380,
      "byteStride": 12,
      "name": "floatBufferViews",
      "target": 34962
    },
    {
      "buffer": 0,
      "byteLength": 52864,
      "byteOffset": 472876,
      "byteStride": 16,
      "name": "floatBufferViews",
      "target": 34962
    },
    {
      "buffer": 0,
      "byteLength": 768,
      "byteOffset": 525740,
      "name": "floatBufferViews"
    },
    {
      "buffer": 0,
      "byteLength": 1152,
      "byteOffset": 526508,
      "byteStride": 12,
      "name": "floatBufferViews"
    },
    {
      "buffer": 0,
      "byteLength": 1536,
      "byteOffset": 527660,
      "byteStride": 16,
      "name": "floatBufferViews"
    }
  ],
  "buffers": [
    {
      "byteLength": 529196,
      "uri": "scene.bin"
    }
  ],
  "extensionsRequired": [
    "KHR_materials_pbrSpecularGlossiness"
  ],
  "extensionsUsed": [
    "KHR_materials_pbrSpecularGlossiness"
  ],
  "images": [
    {
      "uri": "textures/Scania_L94UB_diffuse.png"
    },
    {
      "uri": "textures/Scania_L94UB_specularGlossiness.png"
    },
    {
      "uri": "textures/Scania_L94UB_emissive.png"
    },
    {
      "uri": "textures/Scania_L94UB_normal.png"
    },
    {
      "uri": "textures/Scania_L94UB_occlusion.png"
    },
    {
      "uri": "textures/Scania_L94UB_interior_diffuse.png"
    },
    {
      "uri": "textures/Scania_L94UB_interior_specularGlossiness.png"
    },
    {
      "uri": "textures/Scania_L94UB_interior_occlusion.png"
    }
  ],
  "materials": [
    {
      "alphaMode": "BLEND",
      "emissiveFactor": [
        1.0,
        1.0,
        1.0
      ],
      "emissiveTexture": {
        "index": 2
      },
      "extensions": {
        "KHR_materials_pbrSpecularGlossiness": {
          "diffuseFactor": [
            1.0,
            1.0,
            1.0,
            1.0
          ],
          "diffuseTexture": {
            "index": 0
          },
          "glossinessFactor": 1.0,
          "specularFactor": [
            0.1,
            0.1,
            0.1
          ],
          "specularGlossinessTexture": {
            "index": 1
          }
        }
      },
      "name": "Scania_L94UB",
      "normalTexture": {
        "index": 3
      },
      "occlusionTexture": {
        "index": 4,
        "strength": 0.85
      }
    },
    {
      "alphaMode": "BLEND",
      "extensions": {
        "KHR_materials_pbrSpecularGlossiness": {
          "diffuseFactor": [
            1.0,
            1.0,
            1.0,
            1.0
          ],
          "diffuseTexture": {
            "index": 5
          },
          "glossinessFactor": 1.0,
          "specularFactor": [
            0.1,
            0.1,
            0.1
          ],
          "specularGlossinessTexture": {
            "index": 6
          }
        }
      },
      "name": "Scania_L94UB_interior",
      "occlusionTexture": {
        "index": 7,
        "strength": 0.75
      }
    }
  ],
  "meshes": [
    {
      "name": "Interior_0",
      "primitives": [
        {
          "attributes": {
            "NORMAL": 1,
            "POSITION": 0,
            "TEXCOORD_0": 2
          },
          "indices": 3,
          "material": 1,
          "mode": 4
        }
      ]
    },
    {
      "name": "Exterior_0",
      "primitives": [
        {
          "attributes": {
            "NORMAL": 5,
            "POSITION": 4,
            "TANGENT": 6,
            "TEXCOORD_0": 7
          },
          "indices": 8,
          "material": 0,
          "mode": 4
        }
      ]
    },
    {
      "name": "Door1_0",
      "primitives": [
        {
          "attributes": {
            "NORMAL": 10,
            "POSITION": 9,
            "TANGENT": 11,
            "TEXCOORD_0": 12
          },
          "indices": 13,
          "material": 0,
          "mode": 4
        }
      ]
    },
    {
      "name": "Door2_0",
      "primitives": [
        {
          "attributes": {
            "NORMAL": 15,
            "POSITION": 14,
            "TANGENT": 16,
            "TEXCOORD_0": 17
          },
          "indices": 18,
          "material": 0,
          "mode": 4
        }
      ]
    },
    {
      "name": "Door3_0",
      "primitives": [
        {
          "attributes": {
            "NORMAL": 20,
            "POSITION": 19,
            "TANGENT": 21,
            "TEXCOORD_0": 22
          },
          "indices": 23,
          "material": 0,
          "mode": 4
        }
      ]
    },
    {
      "name": "Wheels_0",
      "primitives": [
        {
          "attributes": {
            "NORMAL": 25,
            "POSITION": 24,
            "TANGENT": 26,
            "TEXCOORD_0": 27
          },
          "indices": 28,
          "material": 0,
          "mode": 4
        }
      ]
    }
  ],
  "nodes": [
    {
      "children": [
        1
      ],
      "matrix": [
        1.238508701324463,
        0.0,
        0.0,
        0.0,
        0.0,
        2.7500417528180396e-16,
        -1.238508701324463,
        0.0,
        0.0,
        1.238508701324463,
        2.7500417528180396e-16,
        0.0,
        0.0,
        0.0,
        0.0,
        1.0
      ],
      "name": "Sketchfab_model"
    },
    {
      "children": [
        2,
        4,
        6,
        8,
        10,
        12,
        14
      ],
      "name": "Root"
    },
    {
      "children": [
        3
      ],
      "matrix": [
        -0.97234,
        1.39132,
        -0.35433000000000003,
        0.0,
        -1.1802400000000002,
        -0.5309200000000001,
        1.1540800000000002,
        0.0,
        0.81752,
        0.8883200000000001,
        1.24471,
        0.0,
        8.03193,
        7.4970799999999995,
        11.680969999999999,
        1.0
      ],
      "name": "Lamp"
    },
    {
      "name": "Lamp"
    },
    {
      "children": [
        5
      ],
      "matrix": [
        -0.0,
        1.7340000000000002,
        0.0,
        0.0,
        -1.7340000000000002,
        -0.0,
        0.0,
        0.0,
        0.0,
        0.0,
        1.7340000000000002,
        0.0,
        0.0,
        0.0,
        0.023720000000000005,
        1.0
      ],
      "name": "Interior"
    },
    {
      "mesh": 0,
      "name": "Interior_0"
    },
    {
      "children": [
        7
      ],
      "matrix": [
        -0.0,
        1.7340000000000002,
        0.0,
        0.0,
        0.0,
        0.0,
        1.7340000000000002,
        0.0,
        1.7340000000000002,
        0.0,
        -0.0,
        0.0,
        0.0,
        0.0,
        0.0,
        1.0
      ],
      "name": "Exterior"
    },
    {
      "mesh": 1,
      "name": "Exterior_0"
    },
    {
      "children": [
        9
      ],
      "name": "Door1",
      "rotation": [
        0.5,
        0.5,
        0.5,
        0.5
      ],
      "scale": [
        1.7339999675750732,
        1.7339999675750732,
        1.7339999675750732
      ],
      "translation": [
        5.179230213165283,
        1.1155699491500854,
        0.3363400101661682
      ]
    },
    {
      "mesh": 2,
      "name": "Door1_0"
    },
    {
      "children": [
        11
      ],
      "name": "Door2",
      "rotation": [
        0.5,
        0.5,
        0.5,
        0.5
      ],
      "scale": [
        1.7339999675750732,
        1.7339999675750732,
        1.7339999675750732
      ],
      "translation": [
        4.088319778442383,
        1.1155699491500854,
        0.3363400101661682
      ]
    },
    {
      "mesh": 3,
      "name": "Door2_0"
    },
    {
      "children": [
        13
      ],
      "name": "Door3",
      "rotation": [
        0.5,
        0.5,
        0.5,
        0.5
      ],
      "scale": [
        1.7339999675750732,
        1.7339999675750732,
        1.7339999675750732
      ],
      "translation": [
        -1.014490008354187,
        1.1155699491500854,
        0.3363400101661682
      ]
    },
    {
      "mesh": 4,
      "name": "Door3_0"
    },
    {
      "children": [
        15
      ],
      "matrix": [
        1.7340000000000002,
        0.0,
        0.0,
        0.0,
        0.0,
        1.7340000000000002,
        0.0,
        0.0,
        0.0,
        0.0,
        1.7340000000000002,
        0.0,
        -2.5181999999999998,
        0.0,
        0.46215,
        1.0
      ],
      "name": "Wheels"
    },
    {
      "mesh": 5,
      "name": "Wheels_0"
    }
  ],
  "samplers": [
    {
      "magFilter": 9729,
      "minFilter": 9987,
      "wrapS": 10497,
      "wrapT": 10497
    }
  ],
  "scene": 0,
  "scenes": [
    {
      "name": "Sketchfab_Scene",
      "nodes": [
        0
      ]
    }
  ],
  "textures": [
    {
      "sampler": 0,
      "source": 0
    },
    {
      "sampler": 0,
      "source": 1
    },
    {
      "sampler": 0,
      "source": 2
    },
    {
      "sampler": 0,
      "source": 3
    },
    {
      "sampler": 0,
      "source": 4
    },
    {
      "sampler": 0,
      "source": 5
    },
    {
      "sampler": 0,
      "source": 6
    },
    {
      "sampler": 0,
      "source": 7
    }
  ]
}
